PathFileType	4	(X/Y/Z)	Run_500 01
DataRate	CameraRate	NumFrames	NumMarkers	Units	OrigDataRate	OrigDataStartFrame	OrigNumFrames
120	120	4	41	mm	120	31	128
Frame#	Time	RASI			LPSI			RPSI			RTH3			LTH1			LTH2			LTH3			RTB1			RTB2			RTB3			LTB1			LTB2			LTB3			RCAL			RTOE			RMT5			LCAL			LTOE			LMT5			LACR			RACR			CLAV			C7			RUA1			RUA2			RUA3			RLEL			LUA1			LUA2			LUA3			LLEL			LMEL			RFAsuperior			RFAradius			RFAulna			LFAsuperior			LFAradius			LFAulna			LASI			RTH1			RMEL			
		X1	Y1	Z1	X2	Y2	Z2	X3	Y3	Z3	X4	Y4	Z4	X5	Y5	Z5	X6	Y6	Z6	X7	Y7	Z7	X8	Y8	Z8	X9	Y9	Z9	X10	Y10	Z10	X11	Y11	Z11	X12	Y12	Z12	X13	Y13	Z13	X14	Y14	Z14	X15	Y15	Z15	X16	Y16	Z16	X17	Y17	Z17	X18	Y18	Z18	X19	Y19	Z19	X20	Y20	Z20	X21	Y21	Z21	X22	Y22	Z22	X23	Y23	Z23	X24	Y24	Z24	X25	Y25	Z25	X26	Y26	Z26	X27	Y27	Z27	X28	Y28	Z28	X29	Y29	Z29	X30	Y30	Z30	X31	Y31	Z31	X32	Y32	Z32	X33	Y33	Z33	X34	Y34	Z34	X35	Y35	Z35	X36	Y36	Z36	X37	Y37	Z37	X38	Y38	Z38	X39	Y39	Z39	X40	Y40	Z40	X41	Y41	Z41	

30	0.491667	1043.789916	986.242237	-213.447717	879.929037	1054.48338	-364.08133	882.001053	1048.728542	-267.484935	762.0178550000001	638.675382	-214.258138	1061.24402	875.581335	-495.940851	1167.089141	824.670891	-467.94701	1177.383408	695.633879	-435.000357	659.620493	422.871533	-281.424889	587.8368840000001	404.24762	-220.662227	568.497441	333.801684	-283.825676	1266.778846	499.055066	-359.593115	1217.032889	436.525053	-439.187544	1213.051875	335.228179	-372.175731	396.684903	297.998177	-288.225023	482.520521	113.027031	-348.270713	446.399502	102.526662	-260.157941	1084.636993	210.188955	-388.357591	1286.444369	187.666784	-338.556681	1283.693931	171.833155	-428.817982	957.654346	1483.121439	-505.638441	1014.323279	1475.409953	-127.196783	1044.404593	1463.376979	-305.878639	916.748867	1518.353846	-320.808569	980.108152	1342.62321	-65.452038	904.469218	1334.438491	-65.565382	953.624163	1267.519754	-29.025195	930.900782	1198.948253	-6.673681	857.319532	1408.771841	-567.477745	781.915666	1399.875491	-546.7054429999999	811.2514660000001	1336.195599	-589.984292	732.731055	1295.972668	-609.2796059999999	703.741272	1305.144819	-527.631701	1037.018187	1182.39039	-74.81870000000001	1104.271293	1166.690913	-174.336409	1120.480657	1112.464909	-131.783656	813.648237	1197.105142	-586.9839459999999	897.144258	1142.333001	-500.126714	869.1653710000001	1103.413752	-549.99317	1040.566818	1030.905771	-441.281874	916.236126	839.691496	-150.528196	885.099904	1175.643318	-72.729111	
31	0.5	1046.095999	987.918779	-213.792367	882.235293	1058.328248	-363.755842	885.186404	1052.848902	-266.765215	757.082032	648.315814	-214.332022	1063.172123	875.715669	-495.628552	1167.520048	822.408933	-466.035876	1177.286067	693.56976	-435.278716	647.392157	435.757676	-282.74545	578.963389	417.139774	-218.782242	552.777884	349.862806	-282.406336	1274.984433	498.506512	-357.128665	1233.985669	430.057368	-436.912067	1239.429641	329.816259	-368.41446	380.999506	321.296695	-279.418869	454.932941	132.186134	-344.305438	420.87657	122.260824	-255.559005	1125.65922	191.12728	-383.90899	1327.848045	191.824922	-330.860243	1328.335023	173.320491	-420.499659	954.689239	1484.919934	-504.83836	1016.800204	1478.481914	-128.381259	1044.09126	1465.45135	-306.453113	915.936597	1519.913765	-319.92523	984.12162	1346.760298	-65.412115	908.420044	1339.455307	-64.17909899999999	957.71506	1272.380046	-27.548641	934.677341	1203.591065	-4.848358	853.75105	1412.450594	-566.521699	778.457329	1403.90046	-545.415652	806.848176	1340.899502	-590.1362	727.974171	1301.127052	-608.622032	699.624713	1309.534306	-526.638902	1039.134046	1187.792581	-75.31721	1104.602479	1172.676571	-176.462973	1121.917976	1118.39996	-134.460548	810.022073	1203.331771	-588.063753	894.415115	1148.036368	-502.077548	867.012195	1109.515227	-552.549201	1042.782554	1033.873165	-442.466199	915.217669	845.5443330000001	-148.935438	887.082494	1180.217747	-69.93897200000001	
32	0.508333	1047.508412	989.484244	-213.858092	884.09882	1061.507889	-363.905592	887.708138	1056.635455	-266.33579	755.584942	653.849562	-214.009937	1064.427155	873.693494	-495.056176	1167.958641	819.009718	-463.170891	1177.337409	689.744724	-436.759056	636.71012	446.362341	-284.623631	571.822912	427.812096	-217.519212	537.413365	366.166074	-282.066995	1281.23095	496.974362	-355.745064	1248.762511	423.538801	-435.148321	1263.334114	325.483882	-364.788137	363.552201	345.637675	-272.128663	427.410761	154.229982	-341.247234	397.765873	145.120559	-250.810392	1164.999639	174.989942	-378.453432	1365.028734	198.85874	-323.577099	1368.830756	177.668294	-412.437421	952.207301	1485.842962	-504.368381	1019.002115	1480.593132	-129.288589	1043.784044	1467.012684	-306.982368	915.212326	1520.998692	-319.056747	987.702873	1349.641342	-65.490488	911.9144	1343.371662	-62.494041	961.200778	1276.083211	-26.062775	937.806159	1207.268092	-2.969945	850.772859	1414.707969	-565.680303	775.430268	1406.363733	-544.413471	803.143455	1344.200716	-590.325835	724.066554	1304.755625	-608.089061	696.2855070000001	1312.222606	-525.865224	1040.600475	1191.517446	-75.414429	1104.133999	1176.434732	-177.991216	1122.439591	1122.105766	-136.503517	807.250296	1208.050723	-589.368037	892.4224380000001	1152.109474	-504.161708	865.789714	1114.14606	-555.4938990000001	1044.552996	1034.939161	-443.289233	914.0103769999999	850.9207280000001	-148.924891	888.640774	1183.749463	-67.087067	
33	0.516667	1048.181021	991.295937	-213.57414	885.4556	1063.766989	-364.566381	889.211496	1060.038771	-266.406178	757.188406	655.259735	-213.113426	1064.642873	870.265496	-494.233627	1168.069716	814.670867	-460.436873	1176.436106	684.524629	-438.272248	628.021666	454.369625	-285.432981	565.03828	437.409884	-216.186046	523.250937	382.134498	-281.429203	1285.263529	494.510312	-354.923962	1260.963321	417.219008	-433.528995	1283.761481	322.109519	-361.153006	346.655713	371.40494	-266.491119	400.691824	178.334395	-338.493567	375.914305	170.257331	-246.046069	1201.044788	161.875919	-372.597935	1396.687824	208.193885	-316.827832	1403.951681	184.406581	-404.797509	950.339278	1486.019439	-504.298647	1020.644527	1481.889707	-129.940747	1043.480353	1468.141897	-307.52949	914.668398	1521.667836	-318.450592	990.522508	1351.31271	-65.648988	914.650973	1346.017239	-60.656928	963.850221	1278.620339	-24.636451	940.1424940000001	1209.95075	-1.196096	848.5507679999999	1415.586957	-564.987858	773.034016	1407.28094	-543.6103429999999	800.228252	1346.168077	-590.4891229999999	721.152979	1306.876366	-607.710732	693.930828	1313.184668	-525.2485359999999	1041.454167	1193.458963	-75.20105599999999	1102.991215	1177.796066	-178.95048	1122.13058	1123.472309	-137.770019	805.409185	1211.145848	-590.823005	891.338676	1154.471985	-506.361944	865.518795	1117.165073	-558.642408	1045.735804	1034.337566	-443.310063	913.008841	855.576371	-150.16791	889.704606	1186.171445	-64.39567700000001	
